IKResults
version=1
nRows=6
nColumns=67
inDegrees=yes

Units are S.I. units (second, meters, Newtons, ...)
Angles are in degrees.

endheader
time	pelvis_tilt	pelvis_list	pelvis_rotation	pelvis_tx	pelvis_ty	pelvis_tz	hip_flexion_r	hip_adduction_r	hip_rotation_r	knee_angle_r	knee_rot_r	knee_adduc_r	ankle_angle_r	ankle_rot_r	ankle_add_r	subtalar_angle_r	mtp_angle_r	mtp_rot_r	mtp_add_r	hip_flexion_l	hip_adduction_l	hip_rotation_l	knee_angle_l	knee_rot_l	knee_adduc_l	ankle_angle_l	ankle_rot_l	ankle_add_l	subtalar_angle_l	mtp_angle_l	mtp_rot_l	mtp_add_l	lumbar_extension	lumbar_bending	lumbar_rotation	neck_flexion	neck_lateral_bending	neck_rotation	arm_flex_r	arm_add_r	arm_rot_r	elbow_flex_r	elbow_rot_r	elbow_add_r	pro_sup_r	wrist_flex_r	wrist_adduc_r	wrist_rot_r	wrist_dev_r	hand_finger_flex_r	hand_finger_adduc_r	hand_finger_rot_r	arm_flex_l	arm_add_l	arm_rot_l	elbow_flex_l	elbow_rot_l	elbow_add_l	pro_sup_l	wrist_flex_l	wrist_adduc_l	wrist_rot_l	wrist_dev_l	hand_finger_flex_l	hand_finger_adduc_l	hand_finger_rot_l
      2.18500000	     -8.17037603	     -9.28242380	      5.88698548	     -1.94124527	      0.61734452	      0.69849854	     43.76599440	     -8.68182749	    -20.45122792	    -62.77942852	     -5.00000000	     -0.31745638	     19.71338208	     -1.21188119	     -2.03483247	    -26.96829103	     -4.11162218	     -2.00000000	      2.00000000	     29.23498513	     -6.21041963	     14.25392182	    -48.36035724	      5.00000000	      3.22715940	     24.77081072	     -1.33341407	      4.91148898	    -24.44174005	      5.55608689	      2.00000000	     -1.16911769	     -5.32061073	      4.96900201	      8.92639564	      0.00000000	      0.00000000	      0.00000000	      0.00000000	      0.00000000	      0.00000000	      0.00000000	      0.00000000	      0.00000000	     -0.00042092	      0.00000000	      0.00000000	      0.00000000	      0.00000000	      0.00000000	      0.00000000	      0.00000000	      0.00000000	      0.00000000	      0.00000000	      0.00000000	      0.00000000	      0.00000000	      0.00000000	      0.00000000	      0.00000000	      0.00000000	      0.00000000	      0.00000000	      0.00000000	      0.00000000
      2.19000000	     -8.22070436	     -9.31521129	      5.99541335	     -1.93811500	      0.61754511	      0.69885858	     43.91158829	     -8.85864043	    -20.65084967	    -61.57342274	     -5.00000000	     -0.22881675	     19.66199961	     -1.08821954	     -2.03954052	    -26.86132317	     -4.06217076	     -2.00000000	      2.00000000	     28.89819187	     -6.36424486	     14.16692112	    -48.07751790	      5.00000000	      3.24117438	     24.88957425	     -1.35665273	      4.89045683	    -24.39762187	      5.51935733	      2.00000000	     -1.16397879	     -5.13735029	      5.15402680	      8.63874686	      0.00000000	      0.00000000	      0.00000000	      0.00000000	      0.00000000	      0.00000000	      0.00000000	      0.00000000	      0.00000000	     -0.00042092	      0.00000000	      0.00000000	      0.00000000	      0.00000000	      0.00000000	      0.00000000	      0.00000000	      0.00000000	      0.00000000	      0.00000000	      0.00000000	      0.00000000	      0.00000000	      0.00000000	      0.00000000	      0.00000000	      0.00000000	      0.00000000	      0.00000000	      0.00000000	      0.00000000
      2.19500000	     -8.22917588	     -9.24045514	      6.05061238	     -1.93569201	      0.61738452	      0.69944103	     44.15296534	     -9.03613943	    -20.67270322	    -60.42313607	     -5.00000000	     -0.15703399	     19.63953711	     -1.03470112	     -2.03599147	    -26.81513944	     -4.04822442	     -2.00000000	      2.00000000	     28.74227414	     -6.40389825	     14.08764048	    -48.20093622	      5.00000000	      3.20693772	     24.93313824	     -1.35880751	      4.88612099	    -24.39091718	      5.50944508	      2.00000000	     -1.16318588	     -5.17148109	      5.18719179	      8.50121078	      0.00000000	      0.00000000	      0.00000000	      0.00000000	      0.00000000	      0.00000000	      0.00000000	      0.00000000	      0.00000000	     -0.00042092	      0.00000000	      0.00000000	      0.00000000	      0.00000000	      0.00000000	      0.00000000	      0.00000000	      0.00000000	      0.00000000	      0.00000000	      0.00000000	      0.00000000	      0.00000000	      0.00000000	      0.00000000	      0.00000000	      0.00000000	      0.00000000	      0.00000000	      0.00000000	      0.00000000
      2.20000000	     -8.17065189	     -9.84234594	      6.52404186	     -1.93209083	      0.61768643	      0.69943148	     43.81421948	     -8.91975394	    -21.73639322	    -58.81617023	     -5.00000000	     -0.16387984	     19.55820138	     -0.46004883	     -2.08836839	    -26.38116663	     -3.78115551	     -2.00000000	      2.00000000	     28.46450342	     -6.87893447	     13.96945590	    -47.95962195	      5.00000000	      3.82439378	     25.42945711	     -1.33843686	      4.74844376	    -24.21332107	      5.32192276	      2.00000000	     -1.13619400	     -4.91054303	      6.08285794	      7.85951185	      0.00000000	      0.00000000	      0.00000000	      0.00000000	      0.00000000	      0.00000000	      0.00000000	      0.00000000	      0.00000000	     -0.00042092	      0.00000000	      0.00000000	      0.00000000	      0.00000000	      0.00000000	      0.00000000	      0.00000000	      0.00000000	      0.00000000	      0.00000000	      0.00000000	      0.00000000	      0.00000000	      0.00000000	      0.00000000	      0.00000000	      0.00000000	      0.00000000	      0.00000000	      0.00000000	      0.00000000
      2.20500000	     -8.22122872	     -9.71814470	      6.56873119	     -1.92894852	      0.61767228	      0.70021300	     43.92699037	     -9.04009139	    -21.83045811	    -57.50036724	     -5.00000000	     -0.21044972	     19.56835422	     -0.44944446	     -2.10452645	    -26.36086871	     -3.73296715	     -2.00000000	      2.00000000	     28.13012394	     -6.92414858	     14.09185658	    -47.81740367	      5.00000000	      3.61022943	     25.46180904	     -1.42277041	      4.70186355	    -24.09900655	      5.28447673	      2.00000000	     -1.12789476	     -4.76588996	      6.00383671	      7.58051209	      0.00000000	      0.00000000	      0.00000000	      0.00000000	      0.00000000	      0.00000000	      0.00000000	      0.00000000	      0.00000000	     -0.00042092	      0.00000000	      0.00000000	      0.00000000	      0.00000000	      0.00000000	      0.00000000	      0.00000000	      0.00000000	      0.00000000	      0.00000000	      0.00000000	      0.00000000	      0.00000000	      0.00000000	      0.00000000	      0.00000000	      0.00000000	      0.00000000	      0.00000000	      0.00000000	      0.00000000
      2.21000000	     -8.25828855	     -9.64693898	      6.63866657	     -1.92586670	      0.61758298	      0.70092682	     43.99229973	     -9.11774260	    -21.90933478	    -56.14406821	     -5.00000000	     -0.19876609	     19.55957645	     -0.36700812	     -2.10931188	    -26.28840564	     -3.68100697	     -2.00000000	      2.00000000	     27.84611235	     -6.96373679	     14.17078624	    -47.74602887	      5.00000000	      3.54081200	     25.54286265	     -1.40193740	      4.66861946	    -24.06256411	      5.24373288	      2.00000000	     -1.12170109	     -4.61770318	      6.02170277	      7.32709059	      0.00000000	      0.00000000	      0.00000000	      0.00000000	      0.00000000	      0.00000000	      0.00000000	      0.00000000	      0.00000000	     -0.00042092	      0.00000000	      0.00000000	      0.00000000	      0.00000000	      0.00000000	      0.00000000	      0.00000000	      0.00000000	      0.00000000	      0.00000000	      0.00000000	      0.00000000	      0.00000000	      0.00000000	      0.00000000	      0.00000000	      0.00000000	      0.00000000	      0.00000000	      0.00000000	      0.00000000
